<svg viewBox="0 0 5291 508" xmlns="http://www.w3.org/2000/svg">
    <linearGradient id="a" gradientUnits="userSpaceOnUse" x1="339.433" x2="204.595" y1="204.662" y2="27.9775">
        <stop offset=".0006" stop-color="#0867df"/>
        <stop offset=".4539" stop-color="#0668e1"/>
        <stop offset=".8591" stop-color="#0064e0"/>
    </linearGradient>
    <linearGradient id="b" gradientUnits="userSpaceOnUse" x1="76.9299" x2="169.37" y1="90.2073" y2="20.0277">
        <stop offset=".1323" stop-color="#0064df"/>
        <stop offset=".9988" stop-color="#0064e0"/>
    </linearGradient>
    <linearGradient id="c" gradientUnits="userSpaceOnUse" x1="37.7486" x2="74.8296" y1="193.193" y2="99.8489">
        <stop offset=".0147" stop-color="#0072ec"/>
        <stop offset=".6881" stop-color="#0064df"/>
    </linearGradient>
    <linearGradient id="d" gradientUnits="userSpaceOnUse" x1="32.7128" x2="37.0033" y1="260.626" y2="203.618">
        <stop offset=".0731" stop-color="#007cf6"/>
        <stop offset=".9943" stop-color="#0072ec"/>
    </linearGradient>
    <linearGradient id="e" gradientUnits="userSpaceOnUse" x1="35.0725" x2="32.0035" y1="291.592" y2="268.752">
        <stop offset=".0731" stop-color="#007ff9"/>
        <stop offset="1" stop-color="#007cf6"/>
    </linearGradient>
    <linearGradient id="f" gradientUnits="userSpaceOnUse" x1="33.2708" x2="52.3974" y1="297.592" y2="338.159">
        <stop offset=".0731" stop-color="#007ff9"/>
        <stop offset="1" stop-color="#0082fb"/>
    </linearGradient>
    <linearGradient id="g" gradientUnits="userSpaceOnUse" x1="327.243" x2="352.529" y1="101.304" y2="66.3323">
        <stop offset=".2799" stop-color="#007ff8"/>
        <stop offset=".9141" stop-color="#0082fb"/>
    </linearGradient>
    <linearGradient id="h" gradientUnits="userSpaceOnUse" x1="519.494" x2="572.393" y1="55.9786" y2="250.569">
        <stop offset="0" stop-color="#0082fb"/>
        <stop offset=".9995" stop-color="#0081fa"/>
    </linearGradient>
    <linearGradient id="i" gradientUnits="userSpaceOnUse" x1="585.164" x2="551.687" y1="258.014" y2="325.665">
        <stop offset=".0619" stop-color="#0081fa"/>
        <stop offset="1" stop-color="#0080f9"/>
    </linearGradient>
    <linearGradient id="j" gradientUnits="userSpaceOnUse" x1="525.079" x2="556.373" y1="361.531" y2="340.217">
        <stop offset="0" stop-color="#027af3"/>
        <stop offset="1" stop-color="#0080f9"/>
    </linearGradient>
    <linearGradient id="k" gradientUnits="userSpaceOnUse" x1="475.999" x2="519.486" y1="365.696" y2="365.696">
        <stop offset="0" stop-color="#0377ef"/>
        <stop offset=".9994" stop-color="#0279f1"/>
    </linearGradient>
    <linearGradient id="l" gradientUnits="userSpaceOnUse" x1="438.193" x2="469.456" y1="341.747" y2="360.14">
        <stop offset=".0019" stop-color="#0471e9"/>
        <stop offset="1" stop-color="#0377ef"/>
    </linearGradient>
    <linearGradient id="m" gradientUnits="userSpaceOnUse" x1="342.826" x2="442.974" y1="206.123" y2="332.039">
        <stop offset=".2765" stop-color="#0867df"/>
        <stop offset="1" stop-color="#0471e9"/>
    </linearGradient>
    <g fill="#fff">
        <path d="m728.722 12.9336h75.223l127.907 231.3674 127.898-231.3674h73.6v380.1864h-61.37v-291.387l-112.162 201.769h-57.57l-112.151-201.769v291.387h-61.375z"/>
        <path d="m1331.31 399.908c-28.42 0-53.41-6.291-74.95-18.872-21.35-12.375-38.8-30.487-50.37-52.279-12.04-22.268-18.06-47.794-18.06-76.579 0-29.144 5.88-54.943 17.65-77.396 11.77-22.446 28.11-40.007 49.02-52.684 20.91-12.67 44.94-19.006 72.1-19.009 26.97 0 50.19 6.382 69.65 19.147 19.46 12.763 34.45 30.641 44.95 53.635 10.5 22.992 15.75 49.966 15.75 80.922v16.84h-208.29c3.8 23.174 13.17 41.414 28.1 54.72 14.94 13.305 33.82 19.959 56.63 19.96 18.28 0 34.03-2.716 47.25-8.149 13.21-5.432 25.61-13.67 37.2-24.713l32.59 39.921c-32.41 29.692-72.15 44.537-119.22 44.536zm44.81-225.53c-12.85-13.128-29.69-19.691-50.51-19.69-20.28 0-37.25 6.698-50.92 20.094-13.67 13.403-22.31 31.418-25.93 54.044h149.36c-1.81-23.174-9.15-41.324-22-54.448z"/>
        <path d="m1531.46 160.121h-56.48v-50.239h56.48v-83.1003h59.21v83.1003h85.81v50.239h-85.81v127.36c0 21.183 3.62 36.3 10.86 45.353 7.24 9.055 19.64 13.581 37.2 13.577 6.62.059 13.24-.259 19.82-.952 5.44-.631 11.41-1.491 17.93-2.578v49.696c-7.44 2.149-15.02 3.782-22.68 4.886-8.77 1.293-17.62 1.929-26.48 1.903-63.91 0-95.86-34.941-95.86-104.821z"/>
        <path d="m1984.98 393.12h-58.12v-39.65c-10.02 14.586-23.56 26.404-39.37 34.355-15.93 8.051-34.04 12.078-54.31 12.083-24.99 0-47.12-6.381-66.4-19.143-19.29-12.767-34.45-30.329-45.49-52.684-11.04-22.356-16.56-47.928-16.56-76.716 0-28.967 5.61-54.585 16.83-76.854 11.23-22.268 26.75-39.739 46.58-52.413 19.82-12.67 42.58-19.006 68.29-19.009 19.37 0 36.76 3.756 52.15 11.269 15.18 7.347 28.32 18.303 38.28 31.91v-36.387h58.12zm-59.2-184.12c-6.34-16.111-16.34-28.83-30.01-38.156-13.67-9.318-29.47-13.978-47.39-13.981-25.35 0-45.53 8.508-60.56 25.526-15.02 17.017-22.53 40.009-22.53 68.977 0 29.149 7.24 52.232 21.72 69.248 14.48 17.017 34.12 25.526 58.93 25.526 18.29 0 34.58-4.708 48.88-14.124 14.05-9.109 24.88-22.41 30.96-38.018z"/>
        <path d="m2129.45 281.914c-9.42-23.988-14.13-50.284-14.12-78.889 0-28.603 4.7-54.898 14.12-78.886 8.96-23.296 22.54-44.5406 39.92-62.4604 17.25-17.6899 37.95-31.6469 60.82-41.0055 23.36-9.6866 48.97-14.53081 76.85-14.53248 27.89 0 53.5 4.84418 76.86 14.53248 22.87 9.3596 43.57 23.3164 60.83 41.0055 17.37 17.9234 30.95 39.1674 39.92 62.4604 9.41 23.988 14.11 50.283 14.12 78.886 0 28.606-4.71 54.903-14.12 78.889-8.97 23.293-22.55 44.537-39.92 62.461-17.25 17.69-37.96 31.647-60.83 41.005-23.35 9.682-48.97 14.525-76.86 14.528-27.87 0-53.49-4.843-76.85-14.528-22.87-9.357-43.57-23.314-60.82-41.005-17.38-17.92-30.96-39.165-39.92-62.461zm304.42-78.889c0-27.332-5.44-51.455-16.3-72.369-10.86-20.912-25.84-37.2508-44.94-49.0166-19.1-11.7673-40.97-17.6517-65.59-17.6532-24.62 0-46.48 5.8844-65.58 17.6532-19.1 11.7673-34.08 28.1066-44.94 49.0166-10.86 20.907-16.29 45.03-16.29 72.369 0 27.34 5.43 51.464 16.29 72.373 10.86 20.911 25.85 37.25 44.94 49.016 19.1 11.772 40.96 17.656 65.58 17.653 24.62 0 46.48-5.884 65.59-17.653 19.1-11.767 34.08-28.106 44.94-49.016 10.86-20.912 16.29-45.036 16.3-72.373z"/>
        <path d="m2553.08 109.882h58.38v39.374c9.98-14.542 23.48-26.315 39.25-34.218 15.83-7.962 33.89-11.945 54.17-11.949 24.99 0 47.16 6.382 66.53 19.147 19.38 12.763 34.54 30.278 45.49 52.546 10.96 22.267 16.43 47.886 16.43 76.854 0 28.785-5.61 54.357-16.83 76.717-11.23 22.361-26.75 39.876-46.58 52.546-19.82 12.669-42.58 19.006-68.29 19.009-19.01 0-36.12-3.62-51.33-10.86-15-7.073-28.05-17.7-38.02-30.959v149.085h-59.2zm89.21 222.272c13.67 9.326 29.46 13.988 47.39 13.985 25.34 0 45.52-8.509 60.56-25.526 15.02-17.018 22.54-40.01 22.54-68.977 0-29.149-7.25-52.232-21.73-69.248-14.49-17.017-34.13-25.526-58.93-25.526-18.28 0-34.58 4.706-48.88 14.119-14.05 9.109-24.88 22.41-30.96 38.018v84.998c6.34 16.115 16.34 28.834 30.01 38.157z"/>
        <path d="m3014.74 399.908c-28.43 0-53.41-6.291-74.96-18.872-21.35-12.373-38.8-30.485-50.37-52.279-12.05-22.268-18.06-47.794-18.06-76.579 0-29.144 5.88-54.943 17.65-77.396 11.77-22.446 28.1-40.007 49.02-52.684 20.91-12.67 44.94-19.006 72.1-19.009 26.97 0 50.19 6.382 69.65 19.147 19.46 12.763 34.44 30.641 44.95 53.635 10.49 22.992 15.74 49.966 15.74 80.922v16.84h-208.28c3.8 23.174 13.17 41.414 28.11 54.72 14.93 13.305 33.81 19.959 56.62 19.96 18.28 0 34.03-2.716 47.25-8.149 13.21-5.432 25.61-13.67 37.2-24.713l32.59 39.921c-32.41 29.692-72.15 44.537-119.21 44.536zm44.8-225.53c-12.86-13.128-29.7-19.691-50.51-19.69-20.28 0-37.25 6.698-50.92 20.094-13.67 13.403-22.31 31.418-25.93 54.044h149.35c-1.8-23.174-9.14-41.324-21.99-54.448z"/>
        <path d="m3190.43 109.882h58.39v41.276c21.9-32.048 52.41-48.071 91.52-48.069 33.67 0 59.56 10.5 77.66 31.501 18.11 21.005 27.16 51.058 27.16 90.16v168.37h-59.2v-161.31c0-26.429-4.71-45.89-14.12-58.383-9.42-12.492-24.17-18.738-44.27-18.738-17.56 0-33.04 4.525-46.43 13.577-13.4 9.055-23.9 21.728-31.5 38.018v186.836h-59.21z"/>
        <path d="m3864.72 285.582c0 36.027-12.45 64.088-37.34 84.185-24.9 20.094-60.61 30.141-107.13 30.141-34.94 0-66.04-6.608-93.28-19.823-27.26-13.212-48.48-32.403-63.68-57.574l46.16-36.387c12.67 19.192 28.51 33.448 47.52 42.77 19.01 9.327 40.83 13.989 65.45 13.986 24.81 0 44.09-4.708 57.84-14.123 13.76-9.412 20.64-22.175 20.64-38.29 0-13.936-4.8-25.477-14.39-34.621-9.6-9.14-25.89-16.065-48.88-20.774l-57.03-11.95c-69.88-14.484-104.82-49.787-104.82-105.91 0-22.268 5.79-41.7304 17.38-58.3878 11.58-16.6534 28.01-29.5973 49.28-38.8317 21.28-9.2334 46.22-13.85083 74.82-13.85236 63.55 0 111.07 24.62236 142.57 73.86686l-46.7 33.404c-11.23-17.0178-24.59-29.6461-40.06-37.8851-15.48-8.2376-34.26-12.3556-56.35-12.3541-24.44 0-43.41 4.4797-56.89 13.4389-13.49 8.9622-20.24 21.7712-20.24 38.4273 0 12.674 4.4 22.903 13.18 30.687 8.77 7.784 24.12 14.03 46.03 18.738l57.02 11.95c72.6 15.208 108.9 51.598 108.9 109.169z"/>
        <path d="m3924.33 329.033c-12.23-22.272-18.34-48.071-18.34-77.397 0-29.509 6.11-55.399 18.34-77.668 11.78-21.828 29.47-39.898 51.05-52.141 21.81-12.492 47.11-18.738 75.9-18.738 28.78 0 54.08 6.246 75.9 18.738 21.57 12.247 39.27 30.316 51.06 52.141 12.21 22.268 18.32 48.157 18.33 77.668 0 29.327-6.11 55.126-18.33 77.397-11.79 21.824-29.49 39.891-51.06 52.137-21.81 12.492-47.11 18.738-75.9 18.738-28.61 0-53.87-6.246-75.77-18.738-21.63-12.211-39.37-30.284-51.18-52.137zm211.67-77.397c0-28.42-7.73-51.231-23.21-68.434-15.48-17.2-35.98-25.799-61.51-25.798-25.52 0-46.03 8.599-61.51 25.798-15.48 17.2-23.22 40.011-23.22 68.434 0 28.243 7.74 50.964 23.22 68.163 15.48 17.2 35.99 25.8 61.51 25.798 25.53 0 46.03-8.599 61.51-25.798s23.22-39.92 23.21-68.163z"/>
        <path d="m4494.2 393.12h-58.39v-40.735c-21.72 31.683-51.78 47.524-90.16 47.522-33.31 0-58.88-10.5-76.72-31.501-17.83-21-26.75-51.053-26.74-90.16v-168.365h59.2v161.306c0 26.251 4.61 45.668 13.84 58.25 9.24 12.586 23.72 18.877 43.46 18.876 17.01 0 32.12-4.481 45.34-13.443 13.22-8.963 23.54-21.5 30.96-37.614v-187.375h59.21z"/>
        <path d="m4559.37 109.882h58.38v43.446c18.29-31.679 43.27-47.52 74.95-47.523 10.32 0 18.74.906 25.26 2.716v54.587c-8.91-1.257-17.89-1.893-26.89-1.903-35.48 0-59.65 15.932-72.5 47.794v184.121h-59.2z"/>
        <path d="m4753.12 173.831c11.3-21.775 28.6-39.865 49.84-52.138 21.35-12.398 46.34-18.6 74.95-18.604 53.22 0 92.87 21.092 118.94 63.277l-46.16 31.23c-9.24-13.941-19.56-24.125-30.96-30.554-11.4-6.423-25.16-9.636-41.28-9.638-24.62 0-44.54 8.644-59.75 25.931-15.2 17.294-22.8 39.97-22.8 68.03 0 29.51 7.42 52.592 22.26 69.248 14.85 16.658 35.76 24.986 62.74 24.984 14.36.116 28.53-3.287 41.27-9.913 12.22-6.216 22.75-15.301 30.69-26.478l41.27 36.391c-27.69 36.209-65.89 54.312-114.59 54.311-29.15 0-54.54-6.11-76.17-18.329-21.4-11.968-38.85-29.895-50.25-51.599-11.86-22.175-17.79-48.199-17.78-78.073 0-29.691 5.93-55.717 17.78-78.076z"/>
        <path d="m5165.22 399.908c-28.43 0-53.41-6.291-74.95-18.872-21.35-12.374-38.8-30.486-50.37-52.279-12.05-22.268-18.07-47.794-18.07-76.579 0-29.144 5.89-54.943 17.66-77.396 11.76-22.446 28.1-40.007 49.01-52.684 20.91-12.67 44.95-19.006 72.1-19.009 26.98 0 50.19 6.382 69.66 19.147 19.46 12.763 34.44 30.641 44.94 53.635 10.5 22.992 15.75 49.966 15.75 80.922v16.84h-208.29c3.81 23.174 13.18 41.414 28.11 54.72 14.94 13.305 33.81 19.959 56.62 19.96 18.28 0 34.03-2.716 47.25-8.149 13.22-5.432 25.62-13.67 37.21-24.713l32.59 39.921c-32.41 29.692-72.15 44.537-119.22 44.536zm44.81-225.53c-12.86-13.128-29.7-19.691-50.51-19.69-20.28 0-37.26 6.698-50.92 20.094-13.67 13.403-22.32 31.418-25.94 54.044h149.36c-1.81-23.174-9.14-41.324-21.99-54.448z"/>
    </g>
    <path d="m172.964 0c-.194 0-.386.00070898-.58.00170898l-.791 65.38099102c.181-.002.362-.0035.543-.0035 43.034 0 76.414 33.9309 148.966 156.1378l4.422 7.44.29.487 40.613-60.937-.281-.471c-9.557-15.545-18.739-29.848-27.545-42.908-10.214-15.132-19.98-28.6503-29.459-40.7197-47.995-61.1099-88.144-84.4083-136.178-84.4083z"
          fill="url(#a)"/>
    <path d="m172.384.00170898c-48.267.24830002-90.9383 31.45999102-121.7509 79.21999102-.0901.14-.1803.28-.2706.42l56.5605 30.7843c.091-.139.184-.278.276-.417 17.993-27.0901 40.384-44.3689 64.394-44.6261.181-.002.362-.0035.543-.0035l.828-65.3794c-.194 0-.386.00070898-.58.00170898z"
          fill="url(#b)"/>
    <path d="m50.6332 79.2212c-.0901.14-.1803.28-.2706.42-20.2472 31.5178-35.3409 70.1948-43.49798 111.9198-.03533.181-.07052.361-.10559.542l63.54277 14.993c.0332-.181.0667-.362.1-.543 6.7921-36.669 19.723-70.679 36.5202-96.127.092-.139.185-.279.277-.417z"
          fill="url(#c)"/>
    <path d="m70.4019 206.553-63.53743-14.991c-.03533.18-.07052.361-.10559.542-4.44798 22.947-6.7108875 46.264-6.75839172 69.638v.566l65.16571172 5.83c-.0052-.19-.0106-.377-.0151-.567-.032-1.356-.0482-2.73-.0487-4.122.0325-18.903 1.7729-37.763 5.2-56.352.0325-.181.066-.363.0995-.544z"
          fill="url(#d)"/>
    <path d="m67.148 288.47c-1.169-6.718-1.8315-13.514-1.982-20.331-.0052-.19-.0106-.377-.0151-.568l-65.15004079-5.829v.567.037c-.06884751 13.664 1.12651079 27.306 3.57080079 40.75.0341.182.0676.361.1022.542l63.57334-14.624c-.0342-.181-.0666-.363-.0992-.544z"
          fill="url(#e)"/>
    <path d="m81.9945 322.198c-7.0911-7.74-12.11-18.905-14.7482-33.184-.0334-.181-.0658-.363-.0984-.544l-63.5771 14.626c.0341.182.0676.36.1022.542 4.8054 25.23 14.23 46.257 27.7259 62.164.12.141.2404.283.3613.424l50.613-43.621c-.1265-.135-.2532-.271-.3787-.407z"
          fill="url(#f)"/>
    <path d="m270.346 141.344c-38.311 58.764-61.519 95.622-61.519 95.622-51.035 80-68.69 97.93-97.104 97.93-11.856 0-21.7611-4.221-29.3493-12.291-.1265-.135-.2534-.271-.3787-.408l-50.5956 43.605c.12.141.2404.282.3613.423 18.6348 21.722 44.9388 33.775 77.4793 33.775 49.232 0 84.64-23.21 147.586-133.241 0 0 26.24-46.337 44.291-78.256-11.182-18.053-21.357-33.683-30.771-47.159z"
          fill="#0082fb"/>
    <path d="m338.633 48.5923c-.129.1371-.261.2772-.39.4147-10.38 11.2231-20.1 23.0396-29.109 35.39 9.479 12.0693 19.264 25.614 29.477 40.746 12.037-18.579 23.273-33.6263 34.286-45.1593.13-.1367.259-.27.389-.4054z"
          fill="url(#g)"/>
    <path d="m524.631 42.8318c-26.717-26.9926-58.575-42.83082344-92.633-42.83082344-35.912 0-66.119 19.68002344-93.365 48.59122344-.129.1371-.261.2772-.39.4147l34.654 30.9768c.13-.1367.259-.27.389-.4054 17.949-18.67 35.319-27.9912 54.575-27.9912 20.725 0 40.127 9.7563 56.931 26.86.131.134.262.2669.394.4019l39.843-35.6155c-.132-.1345-.265-.2676-.398-.4017z"
          fill="#0082fb"/>
    <path d="m601.872 253.137c-1.497-86.668-31.825-164.1481-76.843-209.9035-.132-.1347-.265-.2679-.398-.402l-39.839 35.6156c.131.134.262.2668.393.4018 33.867 34.7871 57.095 99.4931 59.208 174.2701.006.188.011.376.016.565l57.472.018c-.003-.188-.006-.376-.009-.565z"
          fill="url(#h)"/>
    <path d="m601.881 253.702c-.003-.188-.006-.376-.009-.564l-57.479-.019c.006.188.011.376.016.565.094 3.509.141 7.04.14 10.592 0 20.388-3.045 36.869-9.238 48.767-.092.177-.185.354-.279.528l42.855 44.57c.106-.161.21-.322.316-.485 15.557-24.005 23.725-57.353 23.725-97.793 0-2.059-.015-4.112-.047-6.161z"
          fill="url(#i)"/>
    <path d="m535.312 313.043c-.092.176-.186.354-.279.528-5.36 10.029-13.01 16.719-23.01 19.644l19.537 61.569c2.587-.879 5.105-1.865 7.555-2.959.732-.326 1.458-.662 2.178-1.007.415-.198.828-.4 1.239-.604 13.03-6.575 24.246-16.248 32.664-28.17.539-.746 1.073-1.5 1.596-2.267.369-.541.734-1.086 1.095-1.636.106-.162.21-.323.316-.485z"
          fill="url(#j)"/>
    <path d="m499.585 334.896c-6.178.148-12.315-1.047-17.987-3.503l-20.003 63.034c11.243 3.841 23.237 5.572 36.611 5.572 11.519.109 22.974-1.716 33.889-5.399l-19.531-61.548c-4.209 1.262-8.584 1.883-12.979 1.844z"
          fill="url(#k)"/>
    <path d="m459.558 313.338c-.123-.142-.246-.286-.37-.43l-46.027 47.87c.128.138.257.275.386.412 15.993 17.044 31.264 27.617 48.584 33.419l19.988-62.987c-7.3-3.136-14.358-8.818-22.561-18.284z"
          fill="url(#l)"/>
    <path d="m459.188 312.908c-13.807-16.055-30.886-42.787-57.75-86.013l-35.009-58.389-.281-.47-40.622 60.92.289.487 24.807 41.73c24.045 40.238 43.634 69.348 62.539 89.604.128.138.257.275.386.412l46.011-47.852c-.123-.142-.247-.285-.37-.429z"
          fill="url(#m)"/>
</svg>
