<svg xmlns="http://www.w3.org/2000/svg" viewBox="0 0 5291 508">
    <linearGradient id="a" x1="339.43" x2="204.59" y1="204.66" y2="27.98" gradientUnits="userSpaceOnUse">
        <stop offset="0" stop-color="#0867df"/>
        <stop offset=".45" stop-color="#0668e1"/>
        <stop offset=".86" stop-color="#0064e0"/>
    </linearGradient>
    <linearGradient id="b" x1="76.93" x2="169.37" y1="90.21" y2="20.03" gradientUnits="userSpaceOnUse">
        <stop offset=".13" stop-color="#0064df"/>
        <stop offset="1" stop-color="#0064e0"/>
    </linearGradient>
    <linearGradient id="c" x1="32.71" x2="37" y1="260.63" y2="203.62" gradientUnits="userSpaceOnUse">
        <stop offset=".07" stop-color="#007cf6"/>
        <stop offset=".99" stop-color="#0072ec"/>
    </linearGradient>
    <linearGradient id="d" x1="35.07" x2="32" y1="291.59" y2="268.75" gradientUnits="userSpaceOnUse">
        <stop offset=".07" stop-color="#007ff9"/>
        <stop offset="1" stop-color="#007cf6"/>
    </linearGradient>
    <linearGradient id="e" x1="33.27" x2="52.4" y1="297.59" y2="338.16" gradientUnits="userSpaceOnUse">
        <stop offset=".07" stop-color="#007ff9"/>
        <stop offset="1" stop-color="#0082fb"/>
    </linearGradient>
    <linearGradient id="f" x1="327.24" x2="352.53" y1="101.3" y2="66.33" gradientUnits="userSpaceOnUse">
        <stop offset=".28" stop-color="#007ff8"/>
        <stop offset=".91" stop-color="#0082fb"/>
    </linearGradient>
    <linearGradient id="g" x1="585.16" x2="551.69" y1="258.01" y2="325.67" gradientUnits="userSpaceOnUse">
        <stop offset=".06" stop-color="#0081fa"/>
        <stop offset="1" stop-color="#0080f9"/>
    </linearGradient>
    <linearGradient id="h" x1="525.08" x2="556.37" y1="361.53" y2="340.22" gradientUnits="userSpaceOnUse">
        <stop offset="0" stop-color="#027af3"/>
        <stop offset="1" stop-color="#0080f9"/>
    </linearGradient>
    <linearGradient id="i" x1="438.19" x2="469.46" y1="341.75" y2="360.14" gradientUnits="userSpaceOnUse">
        <stop offset="0" stop-color="#0471e9"/>
        <stop offset="1" stop-color="#0377ef"/>
    </linearGradient>
    <linearGradient id="j" x1="342.83" x2="442.97" y1="206.12" y2="332.04" gradientUnits="userSpaceOnUse">
        <stop offset=".28" stop-color="#0867df"/>
        <stop offset="1" stop-color="#0471e9"/>
    </linearGradient>
    <path fill="#fff" d="M728.72 12.93h75.22L931.85 244.3l127.9-231.37h73.6v380.19h-61.37V101.73L959.82 303.5h-57.57L790.1 101.73v291.39h-61.38zm602.59 386.97q-42.63 0-74.95-18.86a132 132 0 0 1-50.37-52.28q-18.06-33.4-18.06-76.58 0-43.73 17.65-77.4 17.65-33.66 49.02-52.68 31.36-19 72.1-19.01 40.46 0 69.65 19.15t44.95 53.63q15.75 34.5 15.75 80.92v16.84h-208.29q5.7 34.77 28.1 54.72 22.41 19.96 56.63 19.96 27.42 0 47.25-8.15 19.81-8.15 37.2-24.7l32.59 39.91q-48.62 44.55-119.22 44.54m44.81-225.52q-19.28-19.7-50.51-19.7-30.42 0-50.92 20.1t-25.93 54.05h149.36q-2.72-34.77-22-54.45m155.34-14.27h-56.48v-50.24h56.48v-83.1h59.21v83.1h85.81v50.24h-85.81v127.36q0 31.77 10.86 45.35 10.86 13.6 37.2 13.58 9.94.09 19.82-.95a367 367 0 0 0 17.93-2.58v49.7a178 178 0 0 1-49.16 6.79q-95.86 0-95.86-104.82zm453.52 233h-58.12v-39.65a105 105 0 0 1-39.37 34.35q-23.9 12.08-54.31 12.09-37.48 0-66.4-19.14t-45.49-52.69q-16.56-33.53-16.56-76.71 0-43.45 16.83-76.86 16.84-33.4 46.58-52.41t68.29-19.01q29.06 0 52.15 11.27a103 103 0 0 1 38.28 31.9v-36.38h58.12zM1925.78 209q-9.5-24.17-30.01-38.16-20.5-13.97-47.39-13.98-38.02 0-60.56 25.53-22.53 25.52-22.53 68.98 0 43.72 21.72 69.24 21.72 25.53 58.93 25.53 27.43 0 48.88-14.12a80 80 0 0 0 30.96-38.02zm203.67 72.91q-14.13-35.97-14.12-78.89 0-42.9 14.12-78.88a185 185 0 0 1 39.92-62.46 180 180 0 0 1 60.82-41q35.04-14.54 76.85-14.54 41.83 0 76.86 14.53a180.5 180.5 0 0 1 60.83 41 186 186 0 0 1 39.92 62.47q14.11 35.98 14.12 78.88t-14.12 78.9a186 186 0 0 1-39.92 62.45 180 180 0 0 1-60.83 41.01q-35.03 14.53-76.86 14.53-41.8 0-76.85-14.53a180 180 0 0 1-60.82-41 185 185 0 0 1-39.92-62.47m304.42-78.89q0-41-16.3-72.36-16.29-31.37-44.94-49.02t-65.59-17.65q-36.93 0-65.58 17.65t-44.94 49.02-16.29 72.36 16.29 72.38q16.3 31.36 44.94 49.01 28.65 17.66 65.58 17.66t65.59-17.66q28.65-17.64 44.94-49.01t16.3-72.38m119.21-93.14h58.38v39.38a104 104 0 0 1 39.25-34.22q23.75-11.94 54.17-11.95 37.48 0 66.53 19.15 29.07 19.14 45.49 52.54t16.43 76.86q0 43.17-16.83 76.71-16.84 33.54-46.58 52.55t-68.29 19q-28.52 0-51.33-10.85a102 102 0 0 1-38.02-30.96v149.08h-59.2zm89.21 222.27q20.5 14 47.39 13.99 38 0 60.56-25.53 22.53-25.52 22.54-68.97 0-43.73-21.73-69.25t-58.93-25.53q-27.43 0-48.88 14.12a80 80 0 0 0-30.96 38.02v85q9.5 24.17 30.01 38.15m372.45 67.75q-42.64 0-74.96-18.86a132 132 0 0 1-50.37-52.28q-18.07-33.4-18.06-76.58 0-43.73 17.65-77.4 17.65-33.66 49.02-52.68 31.36-19 72.1-19.01 40.46 0 69.65 19.15t44.95 53.63q15.74 34.5 15.74 80.92v16.84h-208.28q5.7 34.77 28.11 54.72 22.4 19.96 56.62 19.96 27.42 0 47.25-8.15t37.2-24.7l32.59 39.91q-48.62 44.55-119.21 44.54m44.8-225.52q-19.3-19.7-50.51-19.7-30.42 0-50.92 20.1t-25.93 54.05h149.35q-2.7-34.77-21.99-54.45m130.89-64.51h58.39v41.28q32.85-48.07 91.52-48.07 50.5 0 77.66 31.5t27.16 90.16v168.37h-59.2V231.81q0-39.65-14.12-58.38-14.13-18.75-44.27-18.74-26.34 0-46.43 13.58-20.1 13.58-31.5 38.01v186.84h-59.21zm674.29 175.7q0 54.04-37.34 84.19t-107.13 30.14q-52.41 0-93.28-19.83-40.89-19.8-63.68-57.57l46.16-36.39q19 28.8 47.52 42.77 28.52 14 65.45 13.99 37.22 0 57.84-14.12 20.64-14.12 20.64-38.3 0-20.9-14.39-34.61t-48.88-20.78l-57.03-11.95q-104.82-21.73-104.82-105.9 0-33.42 17.38-58.4T3642.44 20q31.92-13.85 74.82-13.85 95.32 0 142.57 73.87l-46.7 33.4q-16.85-25.53-40.06-37.88t-56.35-12.36q-36.66 0-56.89 13.44t-20.24 38.43q0 19 13.18 30.69 13.16 11.68 46.03 18.73l57.02 11.95q108.9 22.82 108.9 109.17m59.61 43.44q-18.34-33.4-18.34-77.4 0-44.26 18.34-77.66a132 132 0 0 1 51.05-52.14q32.72-18.75 75.9-18.74 43.17 0 75.9 18.74a132.3 132.3 0 0 1 51.06 52.14q18.31 33.4 18.33 77.67 0 43.98-18.33 77.4a132 132 0 0 1-51.06 52.13q-32.72 18.74-75.9 18.74-42.92 0-75.77-18.74a132 132 0 0 1-51.18-52.14m211.67-77.4q0-42.62-23.21-68.43-23.22-25.8-61.51-25.8t-61.51 25.8-23.22 68.44q0 42.36 23.22 68.16t61.51 25.8 61.51-25.8c23.21-25.8 23.22-39.92 23.21-68.16m358.2 141.48h-58.39v-40.73q-32.59 47.52-90.16 47.52-49.96 0-76.72-31.5t-26.74-90.16V109.88h59.2v161.3q0 39.39 13.84 58.26t43.46 18.87q25.51 0 45.34-13.44t30.96-37.61V109.88h59.21zm65.17-283.24h58.38v43.45q27.43-47.52 74.95-47.53 15.48 0 25.26 2.72v54.59a194 194 0 0 0-26.89-1.9q-53.22 0-72.5 47.79v184.12h-59.2zm193.75 63.95a128.7 128.7 0 0 1 49.84-52.14q32.03-18.6 74.95-18.6 79.83 0 118.94 63.28l-46.16 31.23q-13.86-20.92-30.96-30.56t-41.28-9.64q-36.93 0-59.75 25.93-22.8 25.94-22.8 68.03 0 44.27 22.26 69.25 22.27 24.99 62.74 24.99a88 88 0 0 0 41.27-9.92 85 85 0 0 0 30.69-26.47l41.27 36.39q-41.54 54.3-114.59 54.3-43.72 0-76.17-18.32a126.5 126.5 0 0 1-50.25-51.6q-17.8-33.27-17.78-78.07 0-44.55 17.78-78.08m412.1 226.07q-42.64 0-74.95-18.86a132 132 0 0 1-50.37-52.28q-18.07-33.4-18.07-76.58 0-43.73 17.66-77.4 17.64-33.66 49.01-52.68 31.37-19 72.1-19.01 40.46 0 69.66 19.15t44.94 53.63q15.75 34.5 15.75 80.92v16.84h-208.29q5.72 34.77 28.11 54.72 22.4 19.96 56.62 19.96 27.42 0 47.25-8.15t37.21-24.7l32.59 39.91q-48.61 44.55-119.22 44.54m44.81-225.52q-19.3-19.7-50.51-19.7-30.43 0-50.92 20.1t-25.94 54.05h149.36q-2.72-34.77-21.99-54.45"/>
    <path fill="url(#a)" d="M172.96 0h-.58l-.79 65.38h.55c43.03 0 76.41 33.93 148.96 156.14l4.42 7.44.3.48 40.6-60.93-.27-.47a1218 1218 0 0 0-27.55-42.91 701 701 0 0 0-29.46-40.72C261.14 23.3 221 0 172.96 0"/>
    <path fill="url(#b)" d="M172.38 0C124.12.25 81.45 31.46 50.63 79.22l-.27.42 56.56 30.79.28-.42c18-27.1 40.38-44.37 64.4-44.63h.54L172.96 0z"/>
    <path fill="url(#c)" d="m50.63 79.22-.27.42c-20.24 31.52-35.34 70.2-43.5 111.92l-.1.54 63.54 15 .1-.55c6.8-36.67 19.72-70.68 36.52-96.12l.28-.42z"/>
    <path fill="url(#c)" d="M70.4 206.55 6.86 191.56l-.1.54A370 370 0 0 0 0 261.74v.57l65.17 5.83-.02-.57q-.05-2.04-.05-4.12a314 314 0 0 1 5.3-56.9"/>
    <path fill="url(#d)" d="M67.15 288.47a136 136 0 0 1-1.98-20.33l-.02-.57L0 261.74v.61a222 222 0 0 0 3.57 40.75l.1.54L67.25 289z"/>
    <path fill="url(#e)" d="M82 322.2c-7.1-7.74-12.12-18.9-14.75-33.19l-.1-.54L3.57 303.1l.1.54c4.8 25.23 14.23 46.25 27.73 62.16l.36.43 50.61-43.63z"/>
    <path fill="#0082fb" d="M270.35 141.34c-38.32 58.77-61.52 95.63-61.52 95.63-51.04 80-68.7 97.93-97.1 97.93-11.86 0-21.77-4.22-29.36-12.3l-.38-.4-50.6 43.6.37.43C50.4 387.95 76.7 400 109.24 400c49.23 0 84.64-23.21 147.59-133.24 0 0 26.24-46.34 44.29-78.26a1032 1032 0 0 0-30.77-47.16"/>
    <path fill="url(#f)" d="m338.63 48.6-.39.4a395 395 0 0 0-29.1 35.4 701 701 0 0 1 29.47 40.74c12.04-18.58 23.27-33.62 34.29-45.16l.39-.4z"/>
    <path fill="#0082fb" d="M524.63 42.83C497.91 15.83 466.06 0 432 0c-35.91 0-66.12 19.68-93.37 48.6l-.39.4 34.66 30.98.39-.4c17.94-18.67 35.31-28 54.57-28 20.73 0 40.13 9.76 56.93 26.87l.4.4 39.84-35.62z"/>
    <path fill="url(#g)" d="M601.87 253.14c-1.5-86.67-31.82-164.15-76.84-209.9l-.4-.4-39.84 35.6.4.4c33.86 34.8 57.09 99.5 59.2 174.28l.02.56 57.47.02z"/>
    <path fill="url(#h)" d="M601.88 253.7v-.56l-57.49-.02.02.56q.14 5.26.14 10.6c0 20.38-3.05 36.87-9.24 48.76l-.28.53 42.86 44.57.31-.48c15.56-24 23.73-57.36 23.73-97.8q0-3.08-.05-6.16"/>
    <path fill="url(#i)" d="m535.31 313.04-.28.53c-5.36 10.03-13 16.72-23 19.65l19.53 61.56a88 88 0 0 0 10.97-4.57 89 89 0 0 0 32.67-28.17 102 102 0 0 0 2.69-3.9l.31-.48z"/>
    <path fill="url(#j)" d="M499.59 334.9a43 43 0 0 1-18-3.5l-20 63.03c11.25 3.84 23.24 5.57 36.62 5.57 11.51.1 22.97-1.72 33.88-5.4l-19.53-61.55a44 44 0 0 1-12.97 1.85"/>
    <path fill="url(#i)" d="m459.56 313.34-.37-.43-46.03 47.87.39.41c15.99 17.04 31.26 27.62 48.58 33.42l19.99-62.99c-7.3-3.13-14.36-8.82-22.56-18.28"/>
    <path fill="url(#j)" d="M459.19 312.9c-13.8-16.05-30.89-42.78-57.75-86l-35.01-58.4-.28-.46-40.62 60.92.28.48 24.81 41.73c24.05 40.24 43.64 69.35 62.54 89.6l.39.42 46-47.85z"/>
</svg>
