<svg xmlns="http://www.w3.org/2000/svg" viewBox="0 0 25 22">
    <path fill="currentColor" d="M12.03 13.03a2.33 2.33 0 0 0 2.34-2.33 2.33 2.33 0 0 0-2.34-2.32 2.33 2.33 0 0 0-2.34 2.32 2.33 2.33 0 0 0 2.34 2.33m6.85-11.24Q18.62.7 18.03.4c-.39-.22-.93-.26-1.65-.03q-1.1.35-2.49 1.46-.52.42-1.06.95a27 27 0 0 1 2.22 2.74q1.88.17 3.5.54.2-.72.3-1.4.27-1.74.03-2.86m-8.72.03q.53.42 1.07.95A27 27 0 0 0 9.01 5.5a28 28 0 0 0-3.5.54q-.2-.72-.3-1.4a8 8 0 0 1-.03-2.86Q5.43.7 6.03.4C6.4.17 6.95.13 7.68.36s1.57.72 2.48 1.46zm9.2 5.6a27 27 0 0 1-1.29 3.29A27 27 0 0 1 19.35 14q.73-.21 1.36-.45 1.66-.63 2.52-1.4c.57-.5.8-1 .8-1.44s-.23-.92-.8-1.43a8 8 0 0 0-2.52-1.4q-.63-.24-1.36-.45m-4.31 8.48a27 27 0 0 1-2.22 2.74q.54.53 1.07.95a8 8 0 0 0 2.48 1.46c.72.23 1.26.19 1.65-.03s.7-.67.85-1.4q.25-1.13-.03-2.87-.1-.66-.3-1.4a28 28 0 0 1-3.5.55m-6.04 0a27 27 0 0 0 2.22 2.74q-.54.53-1.07.95a8 8 0 0 1-2.48 1.46c-.73.23-1.27.19-1.65-.03-.39-.22-.7-.67-.85-1.4a8 8 0 0 1 .03-2.87q.1-.66.3-1.4a28 28 0 0 0 3.5.55M4.7 14q.48-1.59 1.27-3.29A27 27 0 0 1 4.7 7.43q-.72.21-1.36.45-1.66.63-2.51 1.4c-.57.5-.8 1-.8 1.44s.23.92.8 1.43q.85.77 2.51 1.4.64.24 1.36.45"/>
</svg>
