<svg xmlns="http://www.w3.org/2000/svg" fill="none" viewBox="0 0 24 24">
    <path fill="currentColor" d="M20.45 17.35q-.48 1.1-1.13 2.03-.88 1.27-1.45 1.75-.87.8-1.86.82-.72 0-1.72-.41a5 5 0 0 0-1.86-.41q-.88 0-1.9.41t-1.65.43q-.95.05-1.9-.84-.6-.53-1.52-1.81a13 13 0 0 1-1.6-3.19q-.68-1.95-.68-3.8 0-2.1.91-3.62a5.3 5.3 0 0 1 4.49-2.66q.75 0 2 .46 1.22.47 1.57.47.26 0 1.76-.55a6 6 0 0 1 2.38-.42q2.65.2 3.97 2.09a4.4 4.4 0 0 0-2.34 4q.02 2.01 1.45 3.33.64.62 1.45.95-.18.5-.37.97M16.4 1.45q0 1.58-1.15 2.94c-.92 1.07-2.03 1.7-3.24 1.6l-.02-.4c0-1 .44-2.08 1.21-2.96q.59-.67 1.48-1.11.9-.44 1.7-.48z"/>
</svg>
